<svg xmlns="http://www.w3.org/2000/svg" viewBox="0 0 48 48" width="24px" height="24px">
  <path fill="#0288D1" d="M24,4C12.954,4,4,12.954,4,24s8.954,20,20,20s20-8.954,20-20S35.046,4,24,4z"/>
  <path fill="#FFFFFF" d="M14,19h4v15h-4V19z M15.988,17h-0.022C14.772,17,14,16.11,14,14.999C14,13.864,14.796,13,16.011,13 c1.217,0,1.966,0.864,1.989,1.999C18,16.11,17.228,17,15.988,17z M35,34h-4v-8.396c0-1.966-1.066-3.348-2.74-3.348 c-1.47,0-2.26,1.02-2.26,3.348V34h-4V19h4v2.558c0.736-1.477,2.001-2.558,4.321-2.558C33.203,19,35,21.301,35,25.366V34z"/>
</svg> 