<?xml version="1.0" encoding="UTF-8"?>
<svg width="20" height="20" viewBox="0 0 20 20" fill="none" xmlns="http://www.w3.org/2000/svg">
  <path d="M10 12.5C11.3807 12.5 12.5 11.3807 12.5 10C12.5 8.61929 11.3807 7.5 10 7.5C8.61929 7.5 7.5 8.61929 7.5 10C7.5 11.3807 8.61929 12.5 10 12.5Z" stroke="currentColor" stroke-width="1.5" stroke-linecap="round" stroke-linejoin="round"/>
  <path d="M16.1667 10C16.1667 10.3333 16.1333 10.6583 16.075 10.9833L17.7417 12.2583C17.8917 12.375 17.9333 12.5917 17.8417 12.7667L16.175 15.5667C16.0833 15.7417 15.875 15.8167 15.6917 15.7333L13.725 15.0167C13.2417 15.3833 12.7167 15.6833 12.1417 15.9L11.8333 18C11.8 18.1917 11.6333 18.3333 11.4333 18.3333H8.56667C8.36667 18.3333 8.20833 18.1917 8.16667 18L7.85833 15.9C7.28333 15.6833 6.75833 15.3833 6.275 15.0167L4.30833 15.7333C4.125 15.8167 3.91667 15.7417 3.825 15.5667L2.15833 12.7667C2.06667 12.5917 2.10833 12.375 2.25833 12.2583L3.925 10.9833C3.86667 10.6583 3.83333 10.325 3.83333 10C3.83333 9.675 3.86667 9.34167 3.925 9.01667L2.25833 7.74167C2.10833 7.625 2.06667 7.40833 2.15833 7.23333L3.825 4.43333C3.91667 4.25833 4.125 4.18333 4.30833 4.26667L6.275 4.98333C6.75833 4.61667 7.28333 4.31667 7.85833 4.1L8.16667 2C8.20833 1.80833 8.36667 1.66667 8.56667 1.66667H11.4333C11.6333 1.66667 11.7917 1.80833 11.8333 2L12.1417 4.1C12.7167 4.31667 13.2417 4.61667 13.725 4.98333L15.6917 4.26667C15.875 4.18333 16.0833 4.25833 16.175 4.43333L17.8417 7.23333C17.9333 7.40833 17.8917 7.625 17.7417 7.74167L16.075 9.01667C16.1333 9.34167 16.1667 9.66667 16.1667 10Z" stroke="currentColor" stroke-width="1.5" stroke-linecap="round" stroke-linejoin="round"/>
</svg> 