<?xml version="1.0" encoding="UTF-8"?>
<svg width="48" height="48" viewBox="0 0 48 48" fill="none" xmlns="http://www.w3.org/2000/svg">
  <path d="M32 32L24 24L16 32" stroke="#305AFF" stroke-width="2" stroke-linecap="round" stroke-linejoin="round"/>
  <path d="M24 24V42" stroke="#305AFF" stroke-width="2" stroke-linecap="round" stroke-linejoin="round"/>
  <path d="M40.7799 36.78C42.7306 35.7165 44.2716 34.0337 45.1597 31.9972C46.0477 29.9607 46.2323 27.6864 45.6843 25.5334C45.1363 23.3803 43.8869 21.4711 42.1333 20.1069C40.3796 18.7427 38.2216 18.0014 35.9999 18H33.4799C32.8745 15.6585 31.7462 13.4846 30.1798 11.642C28.6134 9.79927 26.6496 8.33567 24.4361 7.36118C22.2226 6.38669 19.817 5.92669 17.4002 6.01573C14.9833 6.10478 12.6181 6.74062 10.4823 7.8753C8.34649 8.99998 6.49574 10.6011 5.06916 12.5614C3.64259 14.5216 2.6773 16.7862 2.24588 19.1866C1.81446 21.587 1.92813 24.0553 2.57835 26.4021C3.22856 28.7489 4.39751 30.9099 6.0199 32.72" stroke="#305AFF" stroke-width="2" stroke-linecap="round" stroke-linejoin="round"/>
</svg> 